<?xml version="1.0" standalone="no"?><!DOCTYPE svg PUBLIC "-//W3C//DTD SVG 1.1//EN" "http://www.w3.org/Graphics/SVG/1.1/DTD/svg11.dtd"><svg class="icon" height="512" viewBox="0 0 1024 1024" version="1.1" xmlns="http://www.w3.org/2000/svg"><path d="M917.282133 508.125867l0-145.425067c0-47.138133-38.1952-85.333333-85.333333-85.333333l-85.333333 0-85.333333 0c-47.138133 0-85.333333 38.1952-85.333333 85.333333L575.9488 373.76c-5.5296-5.205333-11.5712-10.001067-18.705067-13.6192l-152.200533-77.2096c-42.0352-21.316267-93.3888-4.539733-114.705067 37.4784l-65.792 129.706667c-78.267733 16.401067-148.6848 66.730667-187.682133 143.598933-68.232533 134.485333-14.523733 298.837333 119.978667 367.069867 102.024533 51.746133 221.149867 33.211733 302.523733-37.393067-20.855467-28.8768-37.614933-60.808533-49.629867-95.010133-50.039467 58.3168-134.997333 77.397333-206.574933 41.096533-84.053333-42.6496-117.623467-145.373867-74.990933-229.410133 42.6496-84.0704 145.3568-117.640533 229.410133-74.990933 17.595733 8.9088 32.836267 20.599467 45.7728 34.065067 27.221333-93.6448 89.924267-171.946667 172.578133-219.835733l0 128.836267c-62.378667 50.056533-102.4 126.788267-102.4 212.974933 0 150.818133 122.248533 273.066667 273.066667 273.066667s273.066667-122.248533 273.066667-273.066667C1019.682133 634.914133 979.643733 558.1824 917.282133 508.125867zM480.477867 436.036267c-12.8 25.224533-43.6224 35.2768-68.829867 22.4768-25.224533-12.782933-35.2768-43.605333-22.493867-68.8128 12.8-25.224533 43.6224-35.293867 68.829867-22.493867S493.2608 410.794667 480.477867 436.036267zM746.615467 328.584533c28.279467 0 51.2 22.920533 51.2 51.2s-22.920533 51.2-51.2 51.2-51.2-22.920533-51.2-51.2S718.336 328.584533 746.615467 328.584533zM746.615467 891.784533c-94.242133 0-170.666667-76.424533-170.666667-170.666667s76.424533-170.666667 170.666667-170.666667 170.666667 76.424533 170.666667 170.666667S840.874667 891.784533 746.615467 891.784533zM473.5488 294.4512c47.138133 0 85.333333-38.1952 85.333333-85.333333s-38.1952-85.333333-85.333333-85.333333-85.333333 38.1952-85.333333 85.333333S426.410667 294.4512 473.5488 294.4512zM473.5488 174.984533c18.8416 0 34.133333 15.291733 34.133333 34.133333s-15.291733 34.133333-34.133333 34.133333-34.133333-15.291733-34.133333-34.133333S454.7072 174.984533 473.5488 174.984533zM831.9488 192.0512c0-47.138133-38.1952-85.333333-85.333333-85.333333-20.4288 0-38.946133 7.4752-53.640533 19.473067 1.467733-6.280533 2.440533-12.7488 2.440533-19.473067 0-47.138133-38.1952-85.333333-85.333333-85.333333s-85.333333 38.1952-85.333333 85.333333 38.1952 85.333333 85.333333 85.333333c20.4288 0 38.946133-7.4752 53.640533-19.473067-1.467733 6.280533-2.440533 12.7488-2.440533 19.473067 0 47.138133 38.1952 85.333333 85.333333 85.333333S831.9488 239.189333 831.9488 192.0512zM610.082133 140.8512c-18.8416 0-34.133333-15.291733-34.133333-34.133333s15.291733-34.133333 34.133333-34.133333 34.133333 15.291733 34.133333 34.133333S628.9408 140.8512 610.082133 140.8512zM746.615467 226.184533c-18.8416 0-34.133333-15.291733-34.133333-34.133333s15.291733-34.133333 34.133333-34.133333 34.133333 15.291733 34.133333 34.133333S765.474133 226.184533 746.615467 226.184533z" /></svg>